<svg class="fl-svgdocument" data-svgdocument="" height="40px" id="_sGMVJQJMbqEciQVGzG2mL" style="overflow: visible;"
     viewBox="0 180 512 140" width="100px" x="0" xmlns="http://www.w3.org/2000/svg" y="0">
  <path d="M-234.23799999999994-69.12Q-234.23799999999994-59.94 -240.71799999999996-53.3Q-247.19799999999995-46.66 -259.61799999999994-43.74L-259.61799999999994-43.74Q-252.91799999999995-41.9 -249.45799999999997-37.75Q-246.00799999999995-33.59 -246.00799999999995-28.19L-246.00799999999995-28.19Q-246.00799999999995-19.66 -251.34799999999996-13.39Q-256.698-7.13 -266.95799999999997-3.73Q-277.21799999999996-0.32 -291.68799999999993-0.32L-291.68799999999993-0.32Q-297.08799999999997-0.32 -300.328-0.65L-300.328-0.65Q-300.43799999999993 2.38 -302.91799999999995 3.89Q-305.40799999999996 5.4 -309.29799999999994 5.4L-309.29799999999994 5.4Q-313.17799999999994 5.4 -314.638 3.67Q-316.09799999999996 1.94 -315.87799999999993-1.4L-315.87799999999993-1.4Q-314.90799999999996-16.52 -312.09799999999996-33.1Q-309.29799999999994-49.68 -304.97799999999995-65.12L-304.97799999999995-65.12Q-304.21799999999996-67.82 -301.948-68.9Q-299.67799999999994-69.98 -296.0079999999999-69.98L-296.0079999999999-69.98Q-289.41799999999995-69.98 -289.41799999999995-66.31L-289.41799999999995-66.31Q-289.41799999999995-64.8 -290.068-62.86L-290.068-62.86Q-292.87799999999993-54.43 -295.68799999999993-40.01Q-298.49799999999993-25.6 -299.67799999999994-12.53L-299.67799999999994-12.53Q-294.49799999999993-12.1 -291.2579999999999-12.1L-291.2579999999999-12.1Q-276.1379999999999-12.1 -269.068-16.47Q-261.98799999999994-20.84 -261.98799999999994-27.65L-261.98799999999994-27.65Q-261.98799999999994-32.4 -266.03799999999995-35.64Q-270.08799999999997-38.88 -279.59799999999996-39.2L-279.59799999999996-39.2Q-281.7579999999999-39.31 -282.61799999999994-40.28Q-283.47799999999995-41.26 -283.47799999999995-43.42L-283.47799999999995-43.42Q-283.47799999999995-46.55 -282.18799999999993-48.49Q-280.8879999999999-50.44 -277.43799999999993-50.54L-277.43799999999993-50.54Q-269.768-50.76 -263.55799999999994-52.81Q-257.34799999999996-54.86 -253.77799999999996-58.59Q-250.21799999999996-62.32 -250.21799999999996-67.28L-250.21799999999996-67.28Q-250.21799999999996-73.55 -256.37799999999993-77.17Q-262.52799999999996-80.78 -275.27799999999996-80.78L-275.27799999999996-80.78Q-286.828-80.78 -297.62799999999993-77.81Q-308.42799999999994-74.84 -315.98799999999994-70.31L-315.98799999999994-70.31Q-319.448-68.26 -321.8179999999999-68.26L-321.8179999999999-68.26Q-323.768-68.26 -324.78799999999995-69.61Q-325.8179999999999-70.96 -325.8179999999999-73.01L-325.8179999999999-73.01Q-325.8179999999999-75.71 -324.68799999999993-77.65Q-323.54799999999994-79.6 -319.22799999999995-82.08L-319.22799999999995-82.08Q-310.15799999999996-87.26 -297.95799999999997-90.18Q-285.74799999999993-93.1 -273.0079999999999-93.1L-273.0079999999999-93.1Q-253.45799999999997-93.1 -243.84799999999996-86.51Q-234.23799999999994-79.92 -234.23799999999994-69.12L-234.23799999999994-69.12ZM-185.18199999999996-33.16Q-183.77199999999993-33.16 -183.02199999999993-31.75Q-182.26199999999994-30.35 -182.26199999999994-28.19L-182.26199999999994-28.19Q-182.26199999999994-23 -185.39199999999994-22.03L-185.39199999999994-22.03Q-191.87199999999996-19.76 -199.65199999999996-19.44L-199.65199999999996-19.44Q-201.70199999999994-10.37 -207.75199999999995-4.91Q-213.80199999999996 0.54 -221.46199999999996 0.54L-221.46199999999996 0.54Q-227.94199999999995 0.54 -232.53199999999995-2.59Q-237.12199999999996-5.72 -239.50199999999995-10.91Q-241.88199999999995-16.09 -241.88199999999995-22.14L-241.88199999999995-22.14Q-241.88199999999995-30.35 -238.74199999999996-36.77Q-235.61199999999994-43.2 -230.10199999999995-46.82Q-224.60199999999995-50.44 -217.90199999999996-50.44L-217.90199999999996-50.44Q-209.69199999999995-50.44 -204.67199999999994-44.77Q-199.65199999999996-39.1 -198.78199999999995-30.78L-198.78199999999995-30.78Q-193.71199999999996-31.1 -186.69199999999995-32.94L-186.69199999999995-32.94Q-185.82199999999995-33.16 -185.18199999999996-33.16L-185.18199999999996-33.16ZM-220.60199999999995-10.91Q-217.14199999999994-10.91 -214.61199999999997-13.72Q-212.07199999999995-16.52 -211.20199999999994-21.82L-211.20199999999994-21.82Q-214.55199999999996-24.08 -216.33199999999994-27.76Q-218.12199999999996-31.43 -218.12199999999996-35.53L-218.12199999999996-35.53Q-218.12199999999996-37.26 -217.79199999999994-38.99L-217.79199999999994-38.99L-218.33199999999994-38.99Q-222.65199999999996-38.99 -225.51199999999994-34.83Q-228.38199999999995-30.67 -228.38199999999995-23.11L-228.38199999999995-23.11Q-228.38199999999995-17.17 -226.05199999999996-14.04Q-223.73199999999994-10.91 -220.60199999999995-10.91L-220.60199999999995-10.91ZM-139.47399999999993-33.16Q-138.0639999999999-33.16 -137.3139999999999-31.75Q-136.55399999999992-30.35 -136.55399999999992-28.19L-136.55399999999992-28.19Q-136.55399999999992-23 -139.6839999999999-22.03L-139.6839999999999-22.03Q-146.16399999999993-19.76 -153.94399999999993-19.44L-153.94399999999993-19.44Q-155.99399999999991-10.37 -162.04399999999993-4.91Q-168.09399999999994 0.54 -175.75399999999993 0.54L-175.75399999999993 0.54Q-182.23399999999992 0.54 -186.82399999999993-2.59Q-191.41399999999993-5.72 -193.79399999999993-10.91Q-196.17399999999992-16.09 -196.17399999999992-22.14L-196.17399999999992-22.14Q-196.17399999999992-30.35 -193.03399999999993-36.77Q-189.9039999999999-43.2 -184.39399999999992-46.82Q-178.89399999999992-50.44 -172.19399999999993-50.44L-172.19399999999993-50.44Q-163.98399999999992-50.44 -158.9639999999999-44.77Q-153.94399999999993-39.1 -153.07399999999993-30.78L-153.07399999999993-30.78Q-148.00399999999993-31.1 -140.98399999999992-32.94L-140.98399999999992-32.94Q-140.11399999999992-33.16 -139.47399999999993-33.16L-139.47399999999993-33.16ZM-174.89399999999992-10.91Q-171.4339999999999-10.91 -168.90399999999994-13.72Q-166.36399999999992-16.52 -165.49399999999991-21.82L-165.49399999999991-21.82Q-168.84399999999994-24.08 -170.6239999999999-27.76Q-172.41399999999993-31.43 -172.41399999999993-35.53L-172.41399999999993-35.53Q-172.41399999999993-37.26 -172.08399999999992-38.99L-172.08399999999992-38.99L-172.6239999999999-38.99Q-176.94399999999993-38.99 -179.80399999999992-34.83Q-182.67399999999992-30.67 -182.67399999999992-23.11L-182.67399999999992-23.11Q-182.67399999999992-17.17 -180.34399999999994-14.04Q-178.02399999999992-10.91 -174.89399999999992-10.91L-174.89399999999992-10.91ZM-86.41599999999995-24.08Q-85.01599999999995-24.08 -84.20599999999996-22.79Q-83.39599999999996-21.49 -83.39599999999996-19.22L-83.39599999999996-19.22Q-83.39599999999996-14.9 -85.44599999999996-12.53L-85.44599999999996-12.53Q-90.30599999999995-6.59 -95.27599999999995-3.02Q-100.24599999999995 0.54 -107.04599999999996 0.54L-107.04599999999996 0.54Q-115.36599999999996 0.54 -120.43599999999995-4.21Q-125.51599999999995-8.96 -125.51599999999995-16.85L-125.51599999999995-16.85Q-125.51599999999995-21.06 -121.19599999999996-22.9L-121.19599999999996-22.9Q-116.44599999999996-24.95 -114.38599999999995-27.27Q-112.33599999999996-29.59 -112.33599999999996-32.94L-112.33599999999996-32.94Q-112.33599999999996-34.88 -113.14599999999996-35.86Q-113.95599999999996-36.83 -115.14599999999996-36.83L-115.14599999999996-36.83Q-118.06599999999995-36.83 -121.57599999999995-32.62Q-125.08599999999996-28.4 -128.10599999999994-21.76Q-131.12599999999995-15.12 -132.85599999999994-8.1L-132.85599999999994-8.1Q-134.04599999999996-3.02 -135.61599999999996-1.24Q-137.17599999999996 0.54 -140.52599999999995 0.54L-140.52599999999995 0.54Q-143.87599999999995 0.54 -145.43599999999995-1.89Q-147.00599999999994-4.32 -147.54599999999996-9.4Q-148.08599999999996-14.47 -148.08599999999996-24.3L-148.08599999999996-24.3Q-148.08599999999996-40.93 -144.68599999999995-58.97Q-141.28599999999994-77 -134.63599999999997-89.26Q-127.99599999999995-101.52 -118.70599999999996-101.52L-118.70599999999996-101.52Q-113.74599999999995-101.52 -110.66599999999995-97.25Q-107.58599999999996-92.99 -107.58599999999996-86.18L-107.58599999999996-86.18Q-107.58599999999996-75.28 -113.95599999999996-63.56Q-120.32599999999995-51.84 -134.69599999999997-36.18L-134.69599999999997-36.18Q-135.01599999999996-30.56 -135.01599999999996-24.62L-135.01599999999996-24.62Q-129.83599999999996-38.12 -123.13599999999995-44.23Q-116.44599999999996-50.33 -110.60599999999995-50.33L-110.60599999999995-50.33Q-105.20599999999996-50.33 -101.91599999999995-46.66Q-98.62599999999995-42.98 -98.62599999999995-37.58L-98.62599999999995-37.58Q-98.62599999999995-31.64 -101.64599999999996-26.68Q-104.66599999999995-21.71 -112.01599999999996-17.82L-112.01599999999996-17.82Q-111.58599999999996-14.9 -109.36599999999996-13.12Q-107.15599999999995-11.34 -104.02599999999995-11.34L-104.02599999999995-11.34Q-100.67599999999996-11.34 -97.54599999999996-13.93Q-94.40599999999995-16.52 -89.33599999999996-22.57L-89.33599999999996-22.57Q-88.03599999999996-24.08 -86.41599999999995-24.08L-86.41599999999995-24.08ZM-120.97599999999996-90.83Q-122.92599999999996-90.83 -125.29599999999995-85.27Q-127.67599999999996-79.7 -129.88599999999997-70.25Q-132.10599999999994-60.8 -133.50599999999994-49.68L-133.50599999999994-49.68Q-126.80599999999995-57.56 -122.43599999999995-66.85Q-118.06599999999995-76.14 -118.06599999999995-83.7L-118.06599999999995-83.7Q-118.06599999999995-87.16 -118.81599999999995-88.99Q-119.57599999999995-90.83 -120.97599999999996-90.83L-120.97599999999996-90.83ZM 6.83400000000006-19.66Q 8.45400000000005-20.3  9.534000000000049-20.3L 9.534000000000049-20.3Q 11.264000000000053-20.3  12.124000000000052-19.01Q 12.994000000000057-17.71  12.994000000000057-15.66L 12.994000000000057-15.66Q 12.994000000000057-12.42  11.42400000000005-10.15Q 9.854000000000056-7.88  6.074000000000055-6.05L 6.074000000000055-6.05Q-0.29599999999994964-3.02 -10.445999999999941-1.24Q-20.595999999999947 0.54 -30.425999999999945 0.54L-30.425999999999945 0.54Q-44.035999999999945 0.54 -53.21599999999995-2.54Q-62.395999999999944-5.62 -66.87599999999995-11.02Q-71.35599999999995-16.42 -71.35599999999995-23.22L-71.35599999999995-23.22Q-71.35599999999995-32.51 -65.36599999999994-39.04Q-59.36599999999994-45.58 -47.705999999999946-48.49L-47.705999999999946-48.49Q-54.07599999999995-50.33 -57.47599999999994-54.97Q-60.885999999999946-59.62 -60.885999999999946-65.34L-60.885999999999946-65.34Q-60.885999999999946-73.12 -55.96599999999995-79.11Q-51.05599999999995-85.1 -42.73599999999995-88.34Q-34.425999999999945-91.58 -24.485999999999947-91.58L-24.485999999999947-91.58Q-11.095999999999947-91.58 -4.395999999999944-85.81Q 2.2940000000000538-80.03  2.2940000000000538-70.85L 2.2940000000000538-70.85Q 2.2940000000000538-64.48 -0.025999999999939405-60.53Q-2.345999999999947-56.59 -6.66599999999994-56.59L-6.66599999999994-56.59Q-9.68599999999995-56.59 -11.415999999999947-57.94Q-13.145999999999944-59.29 -13.145999999999944-61.99L-13.145999999999944-61.99Q-13.145999999999944-63.83 -12.605999999999945-65.99L-12.605999999999945-65.99Q-12.065999999999946-69.55 -12.065999999999946-70.85L-12.065999999999946-70.85Q-12.065999999999946-74.74 -14.985999999999947-77.17Q-17.895999999999944-79.6 -24.705999999999946-79.6L-24.705999999999946-79.6Q-33.885999999999946-79.6 -39.385999999999946-75.71Q-44.895999999999944-71.82 -44.895999999999944-65.23L-44.895999999999944-65.23Q-44.895999999999944-60.16 -40.73599999999995-56.86Q-36.58599999999995-53.57 -27.185999999999943-53.24L-27.185999999999943-53.24Q-24.805999999999948-53.14 -23.83599999999995-52.16Q-22.865999999999943-51.19 -22.865999999999943-48.92L-22.865999999999943-48.92Q-22.865999999999943-41.8 -29.345999999999947-41.69L-29.345999999999947-41.69Q-38.30599999999995-41.47 -44.19599999999994-39.2Q-50.08599999999994-36.94 -52.72599999999994-33.43Q-55.37599999999995-29.92 -55.37599999999995-25.92L-55.37599999999995-25.92Q-55.37599999999995-19.22 -49.105999999999945-15.82Q-42.84599999999995-12.42 -29.235999999999947-12.42L-29.235999999999947-12.42Q-20.275999999999947-12.42 -10.285999999999945-14.53Q-0.29599999999994964-16.63  6.83400000000006-19.66L 6.83400000000006-19.66ZM 64.42200000000005-24.08Q 65.82200000000005-24.08  66.63200000000005-22.79Q 67.44200000000005-21.49  67.44200000000005-19.22L 67.44200000000005-19.22Q 67.44200000000005-14.9  65.39200000000005-12.53L 65.39200000000005-12.53Q 60.64200000000005-6.91  54.97200000000005-3.19Q 49.30200000000005 0.54  42.17200000000005 0.54L 42.17200000000005 0.54Q 36.66200000000005 0.54  32.40200000000005-1.51Q 28.132000000000048-3.56  25.652000000000047-7.34L 25.652000000000047-7.34Q 19.492000000000047 0.43  11.072000000000047 0.43L 11.072000000000047 0.43Q 5.132000000000048 0.43  1.6720000000000477-3.02Q-1.7779999999999523-6.48 -1.7779999999999523-12.2L-1.7779999999999523-12.2Q-1.7779999999999523-17.6  0.7020000000000479-20.95Q 3.1820000000000475-24.3  7.7220000000000475-24.3L 7.7220000000000475-24.3Q 11.612000000000048-24.3  11.612000000000048-21.38L 11.612000000000048-21.38Q 11.612000000000048-20.63  11.392000000000047-18.68L 11.392000000000047-18.68Q 11.072000000000047-14.8  11.072000000000047-14.26L 11.072000000000047-14.26Q 11.072000000000047-11.02  13.882000000000048-11.02L 13.882000000000048-11.02Q 15.932000000000048-11.02  17.82200000000005-13.45Q 19.712000000000046-15.88  20.952000000000048-20.09Q 22.192000000000046-24.3  22.192000000000046-29.38L 22.192000000000046-29.38Q 22.192000000000046-33.26  21.222000000000047-35.91Q 20.25200000000005-38.56  18.84200000000005-38.56L 18.84200000000005-38.56Q 17.66200000000005-38.56  17.122000000000046-37.96Q 16.582000000000047-37.37  16.042000000000048-35.96L 16.042000000000048-35.96Q 15.39200000000005-34.24  14.312000000000047-33.21Q 13.232000000000049-32.18  10.532000000000048-32.18L 10.532000000000048-32.18Q 8.152000000000047-32.18  6.752000000000047-33.86Q 5.3420000000000485-35.53  5.3420000000000485-38.99L 5.3420000000000485-38.99Q 5.3420000000000485-44.5  8.692000000000048-47.63Q 12.042000000000048-50.76  17.332000000000047-50.76L 17.332000000000047-50.76Q 21.872000000000046-50.76  25.542000000000048-48.55Q 29.212000000000046-46.33  31.16200000000005-42.12L 31.16200000000005-42.12Q 34.40200000000005-46.44  38.45200000000005-48.6Q 42.502000000000045-50.76  46.38200000000005-50.76L 46.38200000000005-50.76Q 50.60200000000005-50.76  52.81200000000005-48.82Q 55.02200000000005-46.87  55.02200000000005-42.55L 55.02200000000005-42.55Q 55.02200000000005-37.69  53.19200000000005-34.94Q 51.35200000000005-32.18  48.76200000000005-32.18L 48.76200000000005-32.18Q 46.38200000000005-32.18  45.52200000000005-33.16Q 44.66200000000005-34.13  44.22200000000005-35.96L 44.22200000000005-35.96Q 44.01200000000005-37.26  43.58200000000005-37.91Q 43.142000000000046-38.56  42.06200000000005-38.56L 42.06200000000005-38.56Q 40.77200000000005-38.56  39.31200000000005-36.13Q 37.85200000000005-33.7  36.83200000000005-29.7Q 35.80200000000005-25.7  35.80200000000005-21.38L 35.80200000000005-21.38Q 35.80200000000005-16.31  38.23200000000005-13.55Q 40.66200000000005-10.8  44.87200000000005-10.8L 44.87200000000005-10.8Q 49.08200000000005-10.8  52.81200000000005-13.66Q 56.542000000000044-16.52  61.50200000000005-22.57L 61.50200000000005-22.57Q 62.80200000000005-24.08  64.42200000000005-24.08L 64.42200000000005-24.08ZM 76.32400000000005 0.54Q 65.74400000000006 0.54  59.854000000000056-5.45Q 53.97400000000005-11.45  53.97400000000005-21.28L 53.97400000000005-21.28Q 53.97400000000005-30.02  57.42400000000005-36.61Q 60.88400000000005-43.2  66.39400000000005-46.76Q 71.89400000000005-50.33  77.94400000000005-50.33L 77.94400000000005-50.33Q 83.88400000000004-50.33  87.18400000000005-46.82Q 90.47400000000005-43.31  90.47400000000005-37.8L 90.47400000000005-37.8Q 90.47400000000005-33.26  88.47400000000005-30.13Q 86.47400000000005-27  83.23400000000005-27L 83.23400000000005-27Q 81.18400000000005-27  79.94400000000005-27.97Q 78.70400000000005-28.94  78.70400000000005-30.67L 78.70400000000005-30.67Q 78.70400000000005-31.43  78.91400000000004-32.4Q 79.13400000000006-33.37  79.24400000000006-33.8L 79.24400000000006-33.8Q 79.78400000000005-35.42  79.78400000000005-36.83L 79.78400000000005-36.83Q 79.78400000000005-38.23  79.08400000000006-38.99Q 78.37400000000005-39.74  77.08400000000006-39.74L 77.08400000000006-39.74Q 74.59400000000005-39.74  72.43400000000005-37.53Q 70.27400000000006-35.32  68.98400000000005-31.54Q 67.68400000000005-27.76  67.68400000000005-23.22L 67.68400000000005-23.22Q 67.68400000000005-10.69  78.59400000000005-10.69L 78.59400000000005-10.69Q 83.02400000000006-10.69  88.15400000000005-13.66Q 93.28400000000005-16.63  98.25400000000005-22.57L 98.25400000000005-22.57Q 99.54400000000005-24.08  101.16400000000004-24.08L 101.16400000000004-24.08Q 102.57400000000005-24.08  103.38400000000004-22.79Q 104.19400000000005-21.49  104.19400000000005-19.22L 104.19400000000005-19.22Q 104.19400000000005-15.12  102.13400000000004-12.53L 102.13400000000004-12.53Q 97.06400000000005-6.26  89.98400000000005-2.86Q 82.91400000000004 0.54  76.32400000000005 0.54L 76.32400000000005 0.54ZM 152.37800000000004-24.08Q 153.78800000000004-24.08  154.59800000000004-22.79Q 155.40800000000004-21.49  155.40800000000004-19.22L 155.40800000000004-19.22Q 155.40800000000004-14.9  153.35800000000003-12.53L 153.35800000000003-12.53Q 148.38800000000003-6.8  143.14800000000002-3.13Q 137.90800000000004 0.54  131.21800000000005 0.54L 131.21800000000005 0.54Q 125.70800000000004 0.54  122.89800000000004-2.65Q 120.08800000000004-5.83  120.08800000000004-11.88L 120.08800000000004-11.88Q 120.08800000000004-14.9  121.59800000000004-22.68L 121.59800000000004-22.68Q 123.00800000000004-29.48  123.00800000000004-32.08L 123.00800000000004-32.08Q 123.00800000000004-33.8  121.81800000000004-33.8L 121.81800000000004-33.8Q 120.41800000000003-33.8  117.81800000000004-30.19Q 115.22800000000004-26.57  112.63800000000003-20.63Q 110.04800000000003-14.69  108.42800000000004-8.1L 108.42800000000004-8.1Q 106.37800000000004 0.54  98.27800000000003 0.54L 98.27800000000003 0.54Q 95.03800000000004 0.54  94.00800000000004-1.78Q 92.97800000000004-4.1  92.97800000000004-10.15L 92.97800000000004-10.15Q 92.97800000000004-13.61  93.08800000000004-15.66L 93.08800000000004-15.66L 93.19800000000004-24.3Q 93.19800000000004-40.93  96.59800000000004-58.97Q 99.99800000000003-77  106.64800000000004-89.26Q 113.28800000000004-101.52  122.57800000000003-101.52L 122.57800000000003-101.52Q 127.53800000000004-101.52  130.61800000000005-97.25Q 133.69800000000004-92.99  133.69800000000004-86.18L 133.69800000000004-86.18Q 133.69800000000004-75.28  127.32800000000003-63.56Q 120.95800000000004-51.84  106.58800000000004-36.18L 106.58800000000004-36.18Q 106.26800000000004-30.56  106.26800000000004-24.62L 106.26800000000004-24.62Q 109.82800000000003-33.8  114.20800000000004-39.58Q 118.57800000000003-45.36  122.84800000000004-47.84Q 127.10800000000003-50.33  130.67800000000005-50.33L 130.67800000000005-50.33Q 137.69800000000004-50.33  137.69800000000004-43.31L 137.69800000000004-43.31Q 137.69800000000004-39.1  135.31800000000004-28.08L 135.31800000000004-28.08Q 133.26800000000003-18.68  133.26800000000003-15.66L 133.26800000000003-15.66Q 133.26800000000003-11.34  136.39800000000002-11.34L 136.39800000000002-11.34Q 138.55800000000005-11.34  141.52800000000005-13.99Q 144.49800000000005-16.63  149.46800000000005-22.57L 149.46800000000005-22.57Q 150.75800000000004-24.08  152.37800000000004-24.08L 152.37800000000004-24.08ZM 120.30800000000004-90.83Q 118.35800000000003-90.83  115.98800000000004-85.27Q 113.60800000000003-79.7  111.39800000000004-70.25Q 109.17800000000004-60.8  107.77800000000003-49.68L 107.77800000000003-49.68Q 114.47800000000004-57.56  118.84800000000004-66.85Q 123.21800000000005-76.14  123.21800000000005-83.7L 123.21800000000005-83.7Q 123.21800000000005-87.16  122.46800000000005-88.99Q 121.70800000000004-90.83  120.30800000000004-90.83L 120.30800000000004-90.83ZM 156.94400000000005 0.54Q 150.24400000000006 0.54  146.25400000000005-4.32Q 142.25400000000005-9.18  142.25400000000005-17.06L 142.25400000000005-17.06Q 142.25400000000005-25.7  146.25400000000005-33.43Q 150.24400000000006-41.15  156.88400000000004-45.85Q 163.53400000000005-50.54  170.98400000000004-50.54L 170.98400000000004-50.54Q 173.35400000000004-50.54  174.16400000000004-49.63Q 174.97400000000005-48.71  175.51400000000004-46.33L 175.51400000000004-46.33Q 177.78400000000005-46.76  180.27400000000006-46.76L 180.27400000000006-46.76Q 185.56400000000005-46.76  185.56400000000005-42.98L 185.56400000000005-42.98Q 185.56400000000005-40.72  183.94400000000005-32.18L 183.94400000000005-32.18Q 181.45400000000004-19.76  181.45400000000004-14.9L 181.45400000000004-14.9Q 181.45400000000004-13.28  182.26400000000004-12.31Q 183.07400000000004-11.34  184.37400000000005-11.34L 184.37400000000005-11.34Q 186.42400000000004-11.34  189.34400000000005-13.99Q 192.25400000000005-16.63  197.22400000000005-22.57L 197.22400000000005-22.57Q 198.52400000000006-24.08  200.14400000000006-24.08L 200.14400000000006-24.08Q 201.54400000000004-24.08  202.35400000000004-22.79Q 203.16400000000004-21.49  203.16400000000004-19.22L 203.16400000000004-19.22Q 203.16400000000004-14.9  201.11400000000003-12.53L 201.11400000000003-12.53Q 196.68400000000005-7.02  191.71400000000006-3.24Q 186.75400000000005 0.54  182.10400000000004 0.54L 182.10400000000004 0.54Q 178.54400000000004 0.54  175.57400000000004-1.89Q 172.60400000000004-4.32  171.09400000000005-8.53L 171.09400000000005-8.53Q 165.47400000000005 0.54  156.94400000000005 0.54L 156.94400000000005 0.54ZM 160.83400000000006-10.37Q 163.20400000000004-10.37  165.36400000000003-13.18Q 167.52400000000006-15.98  168.49400000000006-20.63L 168.49400000000006-20.63L 172.49400000000006-40.5Q 167.95400000000004-40.39  164.12400000000005-37.1Q 160.29400000000004-33.8  158.02400000000006-28.4Q 155.75400000000005-23  155.75400000000005-16.96L 155.75400000000005-16.96Q 155.75400000000005-13.61  157.10400000000004-11.99Q 158.45400000000004-10.37  160.83400000000006-10.37L 160.83400000000006-10.37ZM 199.08400000000003 0.54Q 194.98400000000004 0.54  193.30400000000003-3.78Q 191.63400000000004-8.1  191.63400000000004-17.6L 191.63400000000004-17.6Q 191.63400000000004-31.64  195.63400000000004-44.28L 195.63400000000004-44.28Q 196.60400000000004-47.41  198.81400000000005-48.87Q 201.03400000000005-50.33  205.02400000000003-50.33L 205.02400000000003-50.33Q 207.18400000000003-50.33  208.05400000000003-49.79Q 208.91400000000004-49.25  208.91400000000004-47.74L 208.91400000000004-47.74Q 208.91400000000004-46.01  207.29400000000004-39.96L 207.29400000000004-39.96Q 206.21400000000003-35.64  205.56400000000002-32.4Q 204.91400000000004-29.16  204.48400000000004-24.41L 204.48400000000004-24.41Q 208.05400000000003-33.7  212.47400000000005-39.53Q 216.90400000000005-45.36  221.17400000000004-47.84Q 225.43400000000003-50.33  229.00400000000005-50.33L 229.00400000000005-50.33Q 236.02400000000003-50.33  236.02400000000003-43.31L 236.02400000000003-43.31Q 236.02400000000003-39.1  233.64400000000003-28.08L 233.64400000000003-28.08Q 231.59400000000005-18.68  231.59400000000005-15.66L 231.59400000000005-15.66Q 231.59400000000005-11.34  234.72400000000005-11.34L 234.72400000000005-11.34Q 236.88400000000004-11.34  239.85400000000004-13.99Q 242.82400000000004-16.63  247.79400000000004-22.57L 247.79400000000004-22.57Q 249.09400000000005-24.08  250.71400000000006-24.08L 250.71400000000006-24.08Q 252.11400000000003-24.08  252.92400000000004-22.79Q 253.73400000000004-21.49  253.73400000000004-19.22L 253.73400000000004-19.22Q 253.73400000000004-14.9  251.68400000000003-12.53L 251.68400000000003-12.53Q 247.03400000000005-6.8  241.69400000000005-3.13Q 236.34400000000005 0.54  229.54400000000004 0.54L 229.54400000000004 0.54Q 224.03400000000005 0.54  221.22400000000005-2.65Q 218.41400000000004-5.83  218.41400000000004-11.88L 218.41400000000004-11.88Q 218.41400000000004-14.9  219.93400000000003-22.68L 219.93400000000003-22.68Q 221.33400000000003-29.48  221.33400000000003-32.08L 221.33400000000003-32.08Q 221.33400000000003-33.8  220.14400000000003-33.8L 220.14400000000003-33.8Q 218.74400000000003-33.8  216.20400000000004-30.19Q 213.66400000000004-26.57  211.02400000000003-20.63Q 208.37400000000002-14.69  206.75400000000005-8.1L 206.75400000000005-8.1Q 205.56400000000002-3.02  204.00400000000005-1.24Q 202.43400000000003 0.54  199.08400000000003 0.54L 199.08400000000003 0.54ZM 297.28200000000004-23.87Q 298.682-23.87  299.492-22.52Q 300.302-21.17  300.302-19.12L 300.302-19.12Q 300.302-16.63  299.552-15.23Q 298.79200000000003-13.82  297.172-12.74L 297.172-12.74Q 287.882-6.48  283.562-3.46L 283.562-3.46L 276.65200000000004 1.19Q 272.552 23.54  265.91200000000003 36.34Q 259.262 49.14  249.002 49.14L 249.002 49.14Q 243.502 49.14  240.04200000000003 45.74Q 236.58200000000002 42.34 236.58200000000002 36.83L 236.58200000000002 36.83Q 236.58200000000002 29.16  242.63200000000003 20.36Q 248.68200000000002 11.56  265.312-1.3L 265.312-1.3L 265.96200000000005-5.51Q 264.122-2.59  261.15200000000004-1.03Q 258.182 0.54  255.27200000000002 0.54L 255.27200000000002 0.54Q 248.57200000000003 0.54  244.58200000000002-4.32Q 240.58200000000002-9.18  240.58200000000002-17.06L 240.58200000000002-17.06Q 240.58200000000002-25.7  244.58200000000002-33.43Q 248.57200000000003-41.15  255.21200000000002-45.85Q 261.862-50.54  269.312-50.54L 269.312-50.54Q 271.682-50.54  272.492-49.63Q 273.302-48.71  273.84200000000004-46.33L 273.84200000000004-46.33Q 275.90200000000004-46.76  278.60200000000003-46.76L 278.60200000000003-46.76Q 281.302-46.76  282.432-45.95Q 283.562-45.14  283.562-42.77L 283.562-42.77Q 283.562-41.47  283.462-40.72L 283.462-40.72Q 283.02200000000005-37.37  280.762-23.76L 280.762-23.76Q 280.322-21.17  279.84200000000004-18.09Q 279.35200000000003-15.01  278.812-11.56L 278.812-11.56Q 287.132-18.04  294.802-23L 294.802-23Q 296.202-23.87  297.28200000000004-23.87L 297.28200000000004-23.87ZM 259.16200000000003-10.37Q 261.642-10.37  263.91200000000003-13.39Q 266.182-16.42  267.15200000000004-22.03L 267.15200000000004-22.03L 270.60200000000003-40.5Q 266.182-40.39  262.40200000000004-37.1Q 258.622-33.8  256.35200000000003-28.4Q 254.08200000000002-23  254.08200000000002-16.96L 254.08200000000002-16.96Q 254.08200000000002-13.61  255.43200000000002-11.99Q 256.78200000000004-10.37  259.16200000000003-10.37L 259.16200000000003-10.37ZM 250.192 38.66Q 252.89200000000002 38.66  256.29200000000003 32.18Q 259.702 25.7  262.832 11.56L 262.832 11.56Q 254.51200000000003 18.68  250.842 24.41Q 247.17200000000003 30.13  247.17200000000003 34.45L 247.17200000000003 34.45Q 247.17200000000003 36.29  247.872 37.48Q 248.57200000000003 38.66  250.192 38.66L 250.192 38.66ZM 338.884-24.08Q 340.294-24.08  341.104-22.79Q 341.914-21.49  341.914-19.22L 341.914-19.22Q 341.914-14.9  339.854-12.53L 339.854-12.53Q 335.864-7.67  328.574-3.56Q 321.284 0.54  312.964 0.54L 312.964 0.54Q 301.62399999999997 0.54  295.364-5.62Q 289.094-11.77  289.094-22.46L 289.094-22.46Q 289.094-29.92  292.234-36.34Q 295.364-42.77  300.924-46.55Q 306.484-50.33  313.504-50.33L 313.504-50.33Q 319.774-50.33  323.554-46.6Q 327.334-42.88  327.334-36.5L 327.334-36.5Q 327.334-29.05  321.984-23.71Q 316.634-18.36  303.894-15.23L 303.894-15.23Q 306.594-10.26  314.154-10.26L 314.154-10.26Q 319.014-10.26  325.224-13.66Q 331.43399999999997-17.06  335.974-22.57L 335.974-22.57Q 337.264-24.08  338.884-24.08L 338.884-24.08ZM 311.674-39.74Q 307.674-39.74  304.924-35.1Q 302.164-30.46  302.164-23.87L 302.164-23.87L 302.164-23.65Q 308.534-25.16  312.214-28.19Q 315.884-31.21  315.884-35.21L 315.884-35.21Q 315.884-37.26  314.74399999999997-38.5Q 313.614-39.74  311.674-39.74L 311.674-39.74Z" data-fl-textpath="" data-uid="o_f4lla7cl8_5" dx="0" dy="0" fill="#164e87" font-family="Pacifico"
        font-scale="contain" font-size="108" href="" id="_t1tIxHaZZG2MNmxNjEYo2" letter-spacing="-3"
        offset="0.5" side="left"
        space="preserve" text="Book Exchange" text-anchor="middle" transform="matrix(0.5089228724204921, 0, 0, 0.4966015890649218, 316.35580893502475, 260.275962076382)" x="0"
        y="0"></path>
  <g data-uid="o_f4lla7cl8_6"
     id="_RSW7n-2N9eGeVdvsA9wND"
     transform="matrix(0.6570748279758376, 0, 0, 0.6411667099091501, -88.5109091604714, 133.34945057110787)">
    <path d="M12.5 21.006c-0.214 0-0.406-0.137-0.475-0.342l-1.921-5.763L4.342 12.98c-0.187-0.062-0.319-0.228-0.339-0.423   c-0.021-0.196 0.076-0.385 0.246-0.483l19-11c0.171-0.097 0.38-0.088 0.537 0.023c0.16 0.111 0.24 0.305 0.206 0.497l-3 17   c-0.026 0.15-0.12 0.28-0.255 0.353c-0.133 0.073-0.293 0.08-0.435 0.02l-6.434-2.757l-0.879 4.396   c-0.044 0.222-0.232 0.387-0.459 0.401C12.521 21.005 12.51 21.006 12.5 21.006z M5.711 12.382l4.947 1.649   c0.149 0.049 0.267 0.167 0.316 0.316l1.404 4.214l0.631-3.154c0.029-0.147 0.124-0.274 0.258-0.344   c0.133-0.071 0.291-0.077 0.43-0.017l6.42 2.751l2.704-15.321L5.711 12.382z"
          data-uid="o_f4lla7cl8_7"
          fill="#3d90e3"
          id="_phllc85rE7S6GrLBFDQFc"
          transform="matrix(9.21692943572998, 0, 0, 9.21692943572998, 142.60638427734375, 76.1761474609375)"></path>
    <path d="M13.5 16.006c-0.101 0-0.202-0.03-0.291-0.093c-0.225-0.16-0.276-0.473-0.116-0.697l6.489-9.084l-8.729 8.728   c-0.195 0.195-0.512 0.195-0.707 0s-0.195-0.512 0-0.707l13-13c0.185-0.185 0.478-0.197 0.677-0.028   c0.198 0.168 0.234 0.46 0.084 0.672l-10 14C13.81 15.933 13.655 16.006 13.5 16.006z"
          data-uid="o_f4lla7cl8_8"
          fill="#3d90e3"
          id="_wcoEW1OPWL1dDQwAKQ3wP"
          transform="matrix(9.21692943572998, 0, 0, 9.21692943572998, 142.6094207763672, 77.8016128540039)"></path>
    <path d="M12.5 21.006c-0.104 0-0.21-0.033-0.3-0.1c-0.221-0.166-0.266-0.479-0.101-0.7l3-4c0.167-0.222 0.48-0.265 0.7-0.1   c0.221 0.166 0.266 0.479 0.101 0.7l-3 4C12.802 20.937 12.651 21.006 12.5 21.006z"
          data-uid="o_f4lla7cl8_9"
          fill="#3d90e3"
          id="_QAGRuNn40BQNQtoID3OYu"
          transform="matrix(9.21692943572998, 0, 0, 9.21692943572998, 144.15823364257812, 79.34628295898438)"></path>
    <path d="M1.222 19.699c-0.121 0-0.242-0.043-0.339-0.132c-0.249-0.229-0.494-0.465-0.736-0.707c-0.195-0.195-0.195-0.512 0-0.707     c0.195-0.196 0.512-0.195 0.707-0.001c0.232 0.232 0.468 0.459 0.707 0.679c0.203 0.187 0.216 0.503 0.029 0.707     C1.491 19.644 1.356 19.699 1.222 19.699z"
          data-uid="o_f4lla7cl8_10"
          fill="#3d90e3"
          id="_yb-tJ4vBPVXlCitcCDhSg"
          transform="matrix(1.5472955703735352, 0, 0, 1.5472955703735352, 252.4014129638672, 204.7275848388672)"></path>
    <path d="M8.034 22.995c-0.472 0-0.956-0.05-1.438-0.149c-0.271-0.055-0.444-0.319-0.39-0.59c0.056-0.271 0.323-0.442 0.591-0.39     c0.416 0.085 0.832 0.128 1.237 0.128c0.002 0 0.004 0 0.006 0l0.225-0.004c0.325-0.018 0.509 0.206 0.519 0.481     S8.577 22.98 8.302 22.99l-0.261 0.005C8.039 22.995 8.036 22.995 8.034 22.995z M4.451 22.038c-0.078 0-0.156-0.018-0.23-0.056     c-0.466-0.242-0.943-0.533-1.419-0.863c-0.228-0.158-0.283-0.47-0.125-0.696c0.158-0.228 0.471-0.282 0.695-0.125     c0.44 0.307 0.881 0.575 1.31 0.797c0.245 0.127 0.341 0.429 0.213 0.674C4.806 21.94 4.632 22.038 4.451 22.038z"
          data-uid="o_f4lla7cl8_11"
          fill="#3d90e3"
          id="_UmfiolODk5NRACk73zmG8"
          transform="matrix(9.21692943572998, 0, 0, 9.21692943572998, 110.86078643798828, 85.18427276611328)"></path>
    <path d="M10.605 22.459c-0.194 0-0.379-0.114-0.46-0.303c-0.108-0.254 0.01-0.548 0.264-0.657     c0.277-0.119 0.558-0.259 0.837-0.424c0.237-0.14 0.543-0.062 0.685 0.177c0.141 0.238 0.062 0.544-0.177 0.685     c-0.309 0.182-0.629 0.345-0.952 0.483C10.738 22.447 10.671 22.459 10.605 22.459z"
          data-uid="o_f4lla7cl8_12"
          fill="#3d90e3"
          id="_rTu32se3LxW-hc92MUk8L"
          transform="matrix(9.21692943572998, 0, 0, 9.21692943572998, 119.91018676757812, 82.44525909423828)"></path>
  </g>
</svg>
