<svg xmlns="http://www.w3.org/2000/svg" xmlns:xlink="http://www.w3.org/1999/xlink" viewBox="0 0 500 200" width="100px" height="40px">
  <path class="st0" d="M 60.199 86.869 L 22.027 19.179 C 22.027 19.179 31.766 16.377 43.744 14.556 L 44.805 17.918 C 38.718 19.88 32.159 21.729 32.159 21.729 L 64.558 79.164 C 64.558 79.164 98.371 69.33 120.324 79.921 C 92.324 72.496 60.199 86.869 60.199 86.869 Z" style="fill: rgb(206, 19, 39);"/>
  <path class="st1" d="M 23.912 29.013 L 26.111 32.964 C 18.767 35.289 13.505 37.53 13.505 37.53 L 58.118 90.651 C 58.118 90.651 84.351 77.175 112.156 84.628 C 80.935 80.593 55.447 98.748 55.447 98.748 L 2.941 36.13 C 2.941 36.13 12.209 32.179 23.912 29.013 Z" style="fill: rgb(1, 2, 2);"/>
  <path class="st2" d="M 66.915 75.858 L 44.137 4.722 C 44.137 4.722 100.767 -4.496 107.286 14.528 C 104.223 9.793 96.683 7.636 88.239 6.823 C 72.57 5.31 53.641 8.392 53.641 8.392 L 72.963 68.742 C 72.963 68.742 117.929 61.401 126.647 74.906 C 110.389 64.988 66.915 75.858 66.915 75.858 Z" style="fill: rgb(0, 123, 61);"/>
  <path class="st1" d="M 76.929 55.322 C 76.929 55.322 110.114 40.22 120.953 61.962 C 109.564 46.244 76.929 55.322 76.929 55.322 Z" style="fill: rgb(1, 2, 2);"/>
  <path class="st1" d="M 71.47 38.343 C 71.47 38.343 104.655 23.242 115.494 44.983 C 104.105 29.265 71.47 38.343 71.47 38.343 Z" style="fill: rgb(1, 2, 2);"/>
  <path class="st1" d="M 66.051 21.364 C 66.051 21.364 99.235 6.263 110.074 28.005 C 98.686 12.259 66.051 21.364 66.051 21.364 Z" style="fill: rgb(1, 2, 2);"/>
  <path text="EXCHANGE" text-anchor="middle" font-size="100" letter-spacing="2" offset="0.5" dx="0" space="preserve" font-family="Allerta Stencil" font-scale="contain" x="0" y="0" fill="#164e87" data-fl-textpath="" id="_t1tIxHaZZG2MNmxNjEYo2" data-uid="o_f4m1ifgg5_16" d="M 3.566 196.143 L 3.566 100.795 L 14.302 100.795 L 14.302 196.143 L 3.566 196.143 Z M 41.394 142.583 L 41.394 153.193 L 17.909 153.193 L 17.909 142.583 L 41.394 142.583 Z M 17.909 196.143 L 17.909 184.37 L 44.124 184.37 L 44.124 196.143 L 17.909 196.143 Z M 17.909 100.795 L 44.124 100.795 L 44.124 112.569 L 17.909 112.569 L 17.909 100.795 Z M 76.271 149.832 L 58.766 100.795 L 70.811 100.795 L 81.373 136.515 L 81.373 166.129 L 72.046 196.143 L 59.816 196.143 L 76.271 149.832 Z M 95.53 100.795 L 107.587 100.795 L 90.082 149.832 L 106.525 196.143 L 94.295 196.143 L 84.98 163.422 L 84.98 133.917 L 95.53 100.795 Z M 167.788 109.607 L 160.487 119.182 C 159.136 116.929 157.7 115.245 156.176 114.131 C 154.652 113.005 153.009 112.357 151.247 112.187 L 151.247 99.378 C 157.818 99.814 163.333 103.224 167.788 109.607 Z M 151.247 196.797 L 151.247 183.989 C 153.009 183.722 154.669 183.032 156.225 181.918 C 157.773 180.791 159.194 179.15 160.487 176.994 L 167.788 186.441 C 165.556 189.627 163.065 192.086 160.314 193.818 C 157.555 195.538 154.533 196.531 151.247 196.797 Z M 122.747 148.015 C 122.747 140.348 123.381 133.577 124.649 127.703 C 125.91 121.841 127.651 116.887 129.875 112.841 C 132.107 108.784 134.73 105.634 137.744 103.394 C 140.766 101.153 144.065 99.814 147.639 99.378 L 147.639 112.314 C 145.712 112.75 143.896 113.719 142.191 115.221 C 140.495 116.735 139 118.915 137.707 121.762 C 136.414 124.608 135.401 128.206 134.668 132.554 C 133.935 136.914 133.539 142.068 133.482 148.015 C 133.539 154.059 133.935 159.237 134.668 163.549 C 135.401 167.861 136.414 171.483 137.707 174.414 C 139 177.345 140.511 179.586 142.241 181.136 C 143.97 182.687 145.769 183.637 147.639 183.989 L 147.639 196.652 C 144.065 196.313 140.766 195.023 137.744 192.782 C 134.73 190.541 132.107 187.392 129.875 183.335 C 127.651 179.277 125.91 174.299 124.649 168.4 C 123.381 162.489 122.747 155.694 122.747 148.015 Z M 223.681 100.795 L 234.243 100.795 L 234.243 196.143 L 223.681 196.143 L 223.681 153.193 L 199.234 153.193 L 199.234 142.583 L 223.681 142.583 L 223.681 100.795 Z M 184.89 196.143 L 184.89 100.795 L 195.625 100.795 L 195.625 196.143 L 184.89 196.143 Z M 283.013 100.941 L 305.533 196.143 L 294.625 196.143 L 277.824 124.741 L 260.85 196.143 L 249.856 196.143 L 272.549 100.941 L 283.013 100.941 Z M 271.845 165.875 L 283.631 165.875 L 286.175 176.358 L 269.375 176.358 L 271.845 165.875 Z M 357.11 166.511 L 357.11 100.795 L 367.845 100.795 L 367.845 196.143 L 357.11 196.143 L 335.305 139.749 L 335.305 109.989 L 357.11 166.511 Z M 331.698 196.143 L 320.963 196.143 L 320.963 100.795 L 331.698 100.795 L 331.698 196.143 Z M 429.635 109.607 L 422.335 119.182 C 420.926 116.675 419.312 114.858 417.491 113.731 C 415.68 112.617 413.806 112.06 411.871 112.06 L 411.512 112.06 L 411.512 99.251 L 411.599 99.251 C 415.124 99.251 418.41 100.111 421.458 101.831 C 424.505 103.563 427.231 106.155 429.635 109.607 Z M 384.595 148.015 C 384.595 140.603 385.183 134.026 386.36 128.284 C 387.53 122.555 389.14 117.686 391.191 113.677 C 393.25 109.668 395.717 106.5 398.591 104.175 C 401.457 101.837 404.562 100.372 407.905 99.778 L 407.905 112.714 C 406.151 113.392 404.524 114.555 403.026 116.202 C 401.535 117.837 400.217 120.102 399.073 122.997 C 397.928 125.88 397.034 129.368 396.392 133.462 C 395.741 137.568 395.387 142.419 395.33 148.015 C 395.387 153.623 395.741 158.541 396.392 162.768 C 397.034 166.995 397.928 170.641 399.073 173.705 C 400.217 176.758 401.535 179.192 403.026 181.009 C 404.524 182.814 406.151 184.061 407.905 184.752 L 407.905 196.525 C 404.562 195.931 401.457 194.448 398.591 192.074 C 395.717 189.7 393.25 186.484 391.191 182.426 C 389.14 178.381 387.53 173.487 386.36 167.746 C 385.183 162.017 384.595 155.44 384.595 148.015 Z M 411.512 146.98 L 432.983 146.98 L 432.983 183.862 C 431.633 186.357 430.122 188.404 428.45 190.002 C 426.778 191.601 425.019 192.915 423.175 193.945 C 421.322 194.975 419.415 195.707 417.455 196.143 C 415.486 196.579 413.535 196.797 411.599 196.797 L 411.512 196.797 L 411.512 185.406 C 412.221 185.406 413.086 185.339 414.106 185.206 C 415.137 185.085 416.195 184.873 417.282 184.57 C 418.361 184.267 419.386 183.856 420.357 183.335 C 421.322 182.814 422.038 182.081 422.507 181.136 L 422.507 157.59 L 411.512 157.59 L 411.512 146.98 Z M 450.255 196.143 L 450.255 100.795 L 460.99 100.795 L 460.99 196.143 L 450.255 196.143 Z M 488.082 142.583 L 488.082 153.193 L 464.597 153.193 L 464.597 142.583 L 488.082 142.583 Z M 464.597 196.143 L 464.597 184.37 L 490.812 184.37 L 490.812 196.143 L 464.597 196.143 Z M 464.597 100.795 L 490.812 100.795 L 490.812 112.569 L 464.597 112.569 L 464.597 100.795 Z" style="pointer-events: none;" path="M-203.15 0C-101.575 0 101.57500000000002 0 203.15 0" dy="-8" font-style="normal" font-weight="400" xlink:href=""/>
  <path text="BOOK" text-anchor="middle" font-size="100" letter-spacing="2" side="left" offset="0.5" dx="0" dy="0" space="preserve" font-family="Allerta Stencil" font-scale="contain" x="0" y="0" fill="#164e87" data-fl-textpath="" id="_t1tIxHaZZG2MNmxNjEYo2" data-uid="o_f4m1ifgg5_28" d="M 182.918 46.536 C 184.895 46.763 186.994 47.332 189.217 48.243 C 191.447 49.163 193.53 50.457 195.462 52.124 C 197.394 53.8 199.001 55.838 200.284 58.238 C 201.575 60.638 202.219 63.397 202.219 66.514 C 202.219 70.317 201.575 73.59 200.284 76.333 C 199.001 79.069 197.394 81.332 195.462 83.125 C 193.53 84.91 191.429 86.316 189.163 87.345 C 186.888 88.374 184.702 89.152 182.602 89.682 C 180.495 90.22 178.628 90.544 177.002 90.653 C 175.369 90.77 174.298 90.829 173.788 90.829 L 158.861 90.829 L 158.861 80.787 L 172.879 80.787 C 177.429 80.787 180.991 79.493 183.564 76.906 C 186.138 74.319 187.425 70.855 187.425 66.514 C 187.425 62.407 186.095 58.943 183.433 56.122 C 180.771 53.309 176.867 51.902 171.72 51.902 L 158.861 51.902 L 158.861 42.655 L 165.04 42.655 C 166.919 42.655 168.848 42.616 170.823 42.539 C 172.8 42.46 174.645 42.043 176.357 41.288 C 178.07 40.524 179.463 39.23 180.534 37.407 C 181.605 35.575 182.142 32.949 182.142 29.528 C 182.142 28.156 181.93 26.73 181.51 25.249 C 181.078 23.761 180.218 22.409 178.927 21.193 C 177.644 19.978 175.8 18.988 173.394 18.224 C 170.995 17.461 167.825 17.079 163.881 17.079 L 158.861 17.079 L 158.861 6.698 L 165.423 6.698 C 169.454 6.698 173.354 7.115 177.122 7.949 C 180.899 8.791 184.245 10.123 187.16 11.947 C 190.076 13.77 192.396 16.148 194.117 19.078 C 195.831 22.007 196.687 25.491 196.687 29.528 C 196.687 31.89 196.256 34.04 195.396 35.98 C 194.544 37.921 193.472 39.612 192.18 41.054 C 190.898 42.503 189.418 43.704 187.741 44.654 C 186.072 45.605 184.465 46.233 182.918 46.536 Z M 138.149 90.829 L 138.149 6.698 L 153.578 6.698 L 153.578 90.829 L 138.149 90.829 Z M 224.667 48.36 C 224.667 41.588 225.589 35.595 227.434 30.381 C 229.277 25.168 231.852 20.753 235.154 17.137 C 238.456 13.521 242.361 10.743 246.867 8.802 C 251.364 6.862 256.274 5.739 261.597 5.436 L 261.597 16.856 C 258.681 17.161 255.936 17.96 253.362 19.253 C 250.789 20.547 248.557 22.448 246.669 24.957 C 244.781 27.467 243.279 30.666 242.163 34.554 C 241.048 38.435 240.445 43.037 240.359 48.36 C 240.445 53.769 241.048 58.394 242.163 62.235 C 243.279 66.077 244.803 69.293 246.735 71.88 C 248.658 74.467 250.907 76.427 253.48 77.759 C 256.055 79.092 258.759 79.871 261.597 80.097 L 261.597 91.401 C 256.362 91.097 251.47 89.975 246.92 88.035 C 242.378 86.094 238.456 83.316 235.154 79.7 C 231.852 76.084 229.277 71.65 227.434 66.397 C 225.589 61.145 224.667 55.132 224.667 48.36 Z M 266.735 16.739 L 266.735 5.436 C 271.97 5.669 276.84 6.776 281.345 8.756 C 285.843 10.727 289.742 13.521 293.045 17.137 C 296.347 20.753 298.943 25.168 300.832 30.381 C 302.721 35.595 303.665 41.588 303.665 48.36 C 303.665 55.132 302.721 61.145 300.832 66.397 C 298.943 71.65 296.347 76.084 293.045 79.7 C 289.742 83.316 285.864 86.094 281.411 88.035 C 276.95 89.975 272.058 91.097 266.735 91.401 L 266.735 80.097 C 269.651 79.793 272.396 78.975 274.969 77.643 C 277.542 76.309 279.774 74.369 281.662 71.821 C 283.55 69.272 285.052 66.077 286.167 62.235 C 287.283 58.394 287.885 53.769 287.973 48.36 C 287.885 42.959 287.283 38.339 286.167 34.496 C 285.052 30.647 283.528 27.447 281.596 24.899 C 279.673 22.35 277.424 20.41 274.851 19.078 C 272.278 17.745 269.571 16.966 266.735 16.739 Z M 326.114 48.36 C 326.114 41.588 327.036 35.595 328.882 30.381 C 330.726 25.168 333.299 20.753 336.602 17.137 C 339.904 13.521 343.808 10.743 348.314 8.802 C 352.811 6.862 357.721 5.739 363.044 5.436 L 363.044 16.856 C 360.128 17.161 357.383 17.96 354.809 19.253 C 352.236 20.547 350.006 22.448 348.117 24.957 C 346.229 27.467 344.726 30.666 343.611 34.554 C 342.496 38.435 341.894 43.037 341.806 48.36 C 341.894 53.769 342.496 58.394 343.611 62.235 C 344.726 66.077 346.251 69.293 348.183 71.88 C 350.107 74.467 352.355 76.427 354.929 77.759 C 357.502 79.092 360.207 79.871 363.044 80.097 L 363.044 91.401 C 357.809 91.097 352.917 89.975 348.367 88.035 C 343.827 86.094 339.904 83.316 336.602 79.7 C 333.299 76.084 330.726 71.65 328.882 66.397 C 327.036 61.145 326.114 55.132 326.114 48.36 Z M 368.182 16.739 L 368.182 5.436 C 373.417 5.669 378.288 6.776 382.794 8.756 C 387.291 10.727 391.19 13.521 394.493 17.137 C 397.796 20.753 400.391 25.168 402.28 30.381 C 404.168 35.595 405.112 41.588 405.112 48.36 C 405.112 55.132 404.168 61.145 402.28 66.397 C 400.391 71.65 397.796 76.084 394.493 79.7 C 391.19 83.316 387.313 86.094 382.86 88.035 C 378.397 89.975 373.505 91.097 368.182 91.401 L 368.182 80.097 C 371.098 79.793 373.843 78.975 376.417 77.643 C 378.99 76.309 381.222 74.369 383.11 71.821 C 384.999 69.272 386.499 66.077 387.616 62.235 C 388.732 58.394 389.333 53.769 389.42 48.36 C 389.333 42.959 388.732 38.339 387.616 34.496 C 386.499 30.647 384.976 27.447 383.044 24.899 C 381.121 22.35 378.872 20.41 376.299 19.078 C 373.725 17.745 371.02 16.966 368.182 16.739 Z M 445.322 90.829 L 429.617 90.829 L 429.617 6.698 L 445.322 6.698 L 445.322 90.829 Z M 491.25 6.698 L 460.882 49.961 L 493.82 90.829 L 475.941 90.829 L 450.592 57.723 L 450.592 41.054 L 473.623 6.698 L 491.25 6.698 Z" font-style="normal" font-weight="400" style="" xlink:href=""/>
</svg>
