<svg height="40px" id="Layer_1" style="enable-background:new 0 0 1500 1000;"
     viewBox="300 250 900 450" width="100px" xml:space="preserve" xmlns="http://www.w3.org/2000/svg">
<style type="text/css">
	.st0 {
    fill: #CE1327;
  }

  .st1 {
    fill: #010202;
  }

  .st2 {
    fill: #007B3D;
  }
</style>
  <g>
	<g>
		<g>
			<g>
				<path class="st0" d="M424.8,628.4l-97.2-241.6c0,0,24.8-10,55.3-16.5l2.7,12c-15.5,7-32.2,13.6-32.2,13.6l82.5,205
					c0,0,86.1-35.1,142,2.7C506.6,577.1,424.8,628.4,424.8,628.4z"/>
			</g>
		</g>
    <g>
			<g>
				<path class="st1" d="M332.4,421.9L338,436c-18.7,8.3-32.1,16.3-32.1,16.3l113.6,189.6c0,0,66.8-48.1,137.6-21.5
					c-79.5-14.4-144.4,50.4-144.4,50.4L279,447.3C279,447.3,302.6,433.2,332.4,421.9z"/>
			</g>
		</g>
	</g>
    <g>
		<g>
			<g>
				<path class="st2" d="M441.9,589.1l-58-253.9c0,0,144.2-32.9,160.8,35c-7.8-16.9-27-24.6-48.5-27.5c-39.9-5.4-88.1,5.6-88.1,5.6
					l49.2,215.4c0,0,114.5-26.2,136.7,22C552.6,550.3,441.9,589.1,441.9,589.1z"/>
			</g>
		</g>
      <g>
			<g>
				<path class="st1" d="M467.4,515.8c0,0,84.5-53.9,112.1,23.7C550.5,483.4,467.4,515.8,467.4,515.8z"/>
			</g>
		</g>
      <g>
			<g>
				<path class="st1" d="M453.5,455.2c0,0,84.5-53.9,112.1,23.7C536.6,422.8,453.5,455.2,453.5,455.2z"/>
			</g>
		</g>
      <g>
			<path class="st1" d="M439.7,394.6c0,0,84.5-53.9,112.1,23.7C522.8,362.1,439.7,394.6,439.7,394.6z"/>
		</g>
	</g>
</g>
  <g>
	<path class="st0" d="M635.1,537c5.6,0,9.7-0.4,12.4-1.3c2.7-0.9,4.5-2.6,5.5-5.2c1-2.5,1.5-6.6,1.5-12.2V408.1h18.1l0.2,112.1
		c0,9.5-1.4,16.7-4.1,21.4c-2.7,4.7-6.7,7.8-11.9,9.3c-5.2,1.5-12.5,2.2-21.8,2.2V537z"/>
    <path class="st0" d="M706.1,529.6c-6.5-8-9.7-20.5-9.7-37.5c0-17.4,3.3-30.2,9.9-38.2c6.6-8,17.2-12,31.9-12c14.8,0,25.4,4,32,12.1
		c6.6,8.1,9.8,20.8,9.8,38.1c0,16.9-3.2,29.4-9.7,37.4s-17.2,12-32.1,12C723.3,541.6,712.6,537.6,706.1,529.6z M752.4,522.9
		c3.4-2.2,5.8-5.7,7.2-10.5c1.4-4.8,2.1-11.6,2.1-20.2c0-9-0.7-16-2.2-21c-1.5-5-3.9-8.5-7.3-10.6c-3.4-2.1-8-3.1-14-3.1
		c-6,0-10.7,1-14.1,3.1c-3.4,2.1-5.9,5.7-7.3,10.7c-1.5,5-2.2,12-2.2,20.9c0,8.5,0.7,15.2,2.1,20.1c1.4,4.9,3.8,8.4,7.3,10.6
		c3.4,2.2,8.2,3.2,14.3,3.2C744.3,526.1,749,525,752.4,522.9z"/>
    <path class="st2" d="M846.2,408.1h48.9c13.5,0,23.4,2.7,29.9,8.2c6.4,5.5,9.6,14.2,9.6,26.2c0,7.5-1.3,13.5-3.8,18
		c-2.5,4.5-6.6,8.2-12.2,11.2c6.6,2.5,11.5,6.3,14.8,11.3s4.9,11.6,4.9,19.9c0,24.4-13.7,36.7-41.2,36.7h-50.8V408.1z M895.1,465
		c7.1,0,12.4-1.7,15.8-5.2c3.4-3.4,5.2-8.7,5.2-15.7c0-7-1.8-12.1-5.3-15.4c-3.6-3.2-9.1-4.9-16.6-4.9h-29.6v41H895.1z M896.2,523.4
		c7.8,0,13.6-1.6,17.6-4.8c3.9-3.2,5.9-8.5,5.9-16c0-14.5-8.1-21.8-24.2-21.8h-30.9v42.6H896.2z"/>
    <path class="st2" d="M966.3,529.6c-6.5-8-9.7-20.5-9.7-37.5c0-17.4,3.3-30.2,9.9-38.2c6.6-8,17.2-12,31.9-12c14.8,0,25.4,4,32,12.1
		c6.6,8.1,9.8,20.8,9.8,38.1c0,16.9-3.2,29.4-9.7,37.4s-17.2,12-32.1,12C983.4,541.6,972.8,537.6,966.3,529.6z M1012.6,522.9
		c3.4-2.2,5.8-5.7,7.2-10.5c1.4-4.8,2.1-11.6,2.1-20.2c0-9-0.7-16-2.2-21c-1.5-5-3.9-8.5-7.3-10.6c-3.4-2.1-8-3.1-14-3.1
		c-6,0-10.7,1-14.1,3.1c-3.4,2.1-5.9,5.7-7.3,10.7c-1.5,5-2.2,12-2.2,20.9c0,8.5,0.7,15.2,2.1,20.1c1.4,4.9,3.8,8.4,7.3,10.6
		c3.4,2.2,8.2,3.2,14.3,3.2C1004.4,526.1,1009.2,525,1012.6,522.9z"/>
    <path class="st2" d="M1067.2,529.6c-6.5-8-9.7-20.5-9.7-37.5c0-17.4,3.3-30.2,9.9-38.2c6.6-8,17.2-12,31.9-12
		c14.8,0,25.4,4,32,12.1c6.6,8.1,9.8,20.8,9.8,38.1c0,16.9-3.2,29.4-9.7,37.4s-17.2,12-32.1,12
		C1084.4,541.6,1073.7,537.6,1067.2,529.6z M1113.5,522.9c3.4-2.2,5.8-5.7,7.2-10.5c1.4-4.8,2.1-11.6,2.1-20.2c0-9-0.7-16-2.2-21
		c-1.5-5-3.9-8.5-7.3-10.6c-3.4-2.1-8-3.1-14-3.1c-6,0-10.7,1-14.1,3.1c-3.4,2.1-5.9,5.7-7.3,10.7c-1.5,5-2.2,12-2.2,20.9
		c0,8.5,0.7,15.2,2.1,20.1c1.4,4.9,3.8,8.4,7.3,10.6c3.4,2.2,8.2,3.2,14.3,3.2C1105.4,526.1,1110.2,525,1113.5,522.9z"/>
    <path class="st2"
          d="M1162.9,403.6h17.8V483l13.4-1.1l24.6-37.8h20l-29,44.3l30.4,51.2h-20l-25.6-42.2l-13.7,1v41.2h-17.8V403.6z"/>
</g>
</svg>
